<svg id="close" xmlns="http://www.w3.org/2000/svg" width="24" height="24" viewBox="0 0 24 24">
  <g id="Group_20261" data-name="Group 20261" transform="translate(-380.729 -138.68)">
    <path id="Path_273" data-name="Path 273" d="M1070.373,159.461l-3.1-3.1a.257.257,0,0,1,0-.364l3.1-3.1a1.288,1.288,0,1,0-1.821-1.823l-3.1,3.1a.255.255,0,0,1-.362,0l-3.1-3.1a1.292,1.292,0,1,0-1.831,1.823l3.108,3.1a.257.257,0,0,1,0,.364l-3.108,3.1a1.291,1.291,0,0,0,1.831,1.822l3.1-3.1a.255.255,0,0,1,.362,0l3.1,3.1a1.288,1.288,0,1,0,1.821-1.822Z" transform="translate(-672.539 -5.5)" fill="#232323"/>
  </g>
  <rect id="Rectangle_6640" data-name="Rectangle 6640" width="24" height="24" fill="none"/>
</svg>
