<!-- Generated by IcoMoon.io -->
<svg version="1.1" xmlns="http://www.w3.org/2000/svg" width="24" height="24" viewBox="0 0 24 24">
<title>list-ul</title>
<path d="M20.402 17.298c-0.115-0.024-0.248-0.038-0.384-0.038-0.005 0-0.010 0-0.016 0h0.001q-2.112 0-4.219 0h-2.545c-1.511 0-3.030 0-4.545 0-0.008-0-0.018-0-0.028-0-0.141 0-0.278 0.018-0.408 0.053l0.011-0.003c-0.246 0.069-0.423 0.292-0.423 0.555 0 0.056 0.008 0.111 0.023 0.162l-0.001-0.004c0.086 0.357 0.308 0.502 0.762 0.502h11.468c0.114-0.001 0.224-0.015 0.33-0.041l-0.010 0.002c0.267-0.070 0.461-0.308 0.461-0.592 0-0.289-0.201-0.531-0.47-0.595l-0.004-0.001z"></path>
<path d="M4.335 16.676v0c-0.006-0-0.013-0-0.021-0-0.659 0-1.193 0.534-1.193 1.193 0 0.004 0 0.008 0 0.013v-0.001c-0 0.009-0 0.021-0 0.032 0 0.331 0.132 0.632 0.347 0.852l-0-0c0.218 0.216 0.517 0.349 0.848 0.349 0.005 0 0.010-0 0.015-0l-0.001 0h0.006c0.006 0 0.014 0 0.021 0 0.335 0 0.639-0.133 0.862-0.35l-0 0c0.215-0.217 0.348-0.515 0.348-0.845 0-0.008-0-0.017-0-0.025l0 0.001c0-0.011 0.001-0.025 0.001-0.038 0-0.653-0.529-1.182-1.182-1.182-0.018 0-0.035 0-0.052 0.001l0.003-0z"></path>
<path d="M20.402 11.404c-0.114-0.024-0.244-0.038-0.377-0.038-0.007 0-0.015 0-0.022 0l0.001-0q-2.112 0-4.219 0h-2.545c-1.511 0-3.030 0-4.545 0-0.009-0-0.020-0-0.031-0-0.14 0-0.275 0.018-0.405 0.052l0.011-0.003c-0.246 0.070-0.423 0.292-0.423 0.556 0 0.056 0.008 0.111 0.023 0.162l-0.001-0.004c0.086 0.356 0.308 0.502 0.762 0.502h11.468c0.114-0.002 0.224-0.016 0.33-0.041l-0.010 0.002c0.266-0.058 0.462-0.291 0.462-0.57 0-0.011-0-0.021-0.001-0.032l0 0.002c0-0.006 0-0.014 0-0.021 0-0.283-0.205-0.518-0.474-0.566l-0.003-0z"></path>
<path d="M4.335 10.782v0c-0.006-0-0.013-0-0.021-0-0.659 0-1.193 0.534-1.193 1.193 0 0.004 0 0.008 0 0.013v-0.001c-0 0.009-0 0.020-0 0.031 0 0.332 0.132 0.632 0.347 0.852l-0-0c0.218 0.215 0.518 0.348 0.849 0.348 0.005 0 0.010-0 0.015-0h0.005c0.006 0 0.014 0 0.021 0 0.335 0 0.639-0.133 0.862-0.349l-0 0c0.215-0.217 0.348-0.516 0.348-0.846 0-0.008-0-0.017-0-0.025l0 0.001c0-0.013 0.001-0.028 0.001-0.043 0-0.65-0.527-1.178-1.178-1.178-0.019 0-0.038 0-0.057 0.001l0.003-0z"></path>
<path d="M8.627 6.737h11.468c0.114-0.001 0.224-0.015 0.33-0.041l-0.010 0.002c0.267-0.070 0.461-0.308 0.461-0.592 0-0.289-0.201-0.531-0.47-0.595l-0.004-0.001c-0.115-0.024-0.248-0.038-0.384-0.038-0.005 0-0.010 0-0.016 0h0.001q-2.112 0-4.219 0h-2.544c-1.511 0-3.030 0-4.545 0-0.008-0-0.018-0-0.028-0-0.141 0-0.278 0.018-0.408 0.053l0.011-0.003c-0.246 0.069-0.424 0.292-0.424 0.555 0 0.057 0.008 0.111 0.023 0.163l-0.001-0.004c0.084 0.356 0.306 0.501 0.759 0.501z"></path>
<path d="M4.335 4.887v0c-0.006-0-0.013-0-0.021-0-0.659 0-1.193 0.534-1.193 1.193 0 0.004 0 0.008 0 0.012v-0.001c-0 0.009-0 0.021-0 0.032 0 0.331 0.132 0.632 0.347 0.852l-0-0c0.218 0.216 0.517 0.349 0.848 0.349 0.005 0 0.010-0 0.015-0l-0.001 0h0.006c0.006 0 0.014 0 0.021 0 0.335 0 0.639-0.133 0.862-0.35l-0 0c0.215-0.216 0.348-0.515 0.348-0.844 0-0.009-0-0.017-0-0.026l0 0.001c0-0.013 0.001-0.028 0.001-0.043 0-0.65-0.527-1.178-1.178-1.178-0.019 0-0.038 0-0.057 0.001l0.003-0z"></path>
</svg>
